<svg width="20" height="20" viewBox="0 0 20 20" fill="none" xmlns="http://www.w3.org/2000/svg">
<path d="M12.4968 0.813484C12.8982 0.813484 13.2236 1.13786 13.2236 1.53799C13.2236 1.90478 12.9502 2.20791 12.5954 2.25589L12.4968 2.2625H5.45429C3.07567 2.2625 1.54548 3.83278 1.45752 6.28224L1.45352 6.50732V14.315C1.45352 16.8291 2.89102 18.4534 5.2384 18.5467L5.45429 18.551H13.7918C16.1725 18.551 17.7007 16.9868 17.7886 14.5399L17.7926 14.315V7.51534C17.7926 7.1152 18.1179 6.79083 18.5193 6.79083C18.8872 6.79083 19.1913 7.06339 19.2394 7.41702L19.2461 7.51534V14.315C19.2461 17.5901 17.1721 19.891 14.0188 19.9962L13.7918 20H5.45429C2.2269 20 0.100627 17.7878 0.00347593 14.5481L0 14.315V6.50732C0 3.23062 2.07521 0.92283 5.22732 0.817263L5.45429 0.813484H12.4968ZM14.5473 7.41126C14.8358 7.63406 14.9099 8.03041 14.7363 8.33828L14.6767 8.42772L11.8384 12.0796C11.6139 12.3685 11.2139 12.4415 10.9047 12.2658L10.815 12.2056L8.08346 10.0668L5.63115 13.2448C5.40864 13.5331 5.01131 13.6083 4.7019 13.4363L4.61198 13.3772C4.32279 13.1554 4.24735 12.7593 4.41992 12.4508L4.47916 12.3612L7.37954 8.60323C7.60364 8.31288 8.00463 8.23898 8.31452 8.41497L8.40448 8.47529L11.1368 10.6155L13.5277 7.54022C13.7736 7.22392 14.2301 7.16618 14.5473 7.41126ZM17.4106 0C18.8407 0 20 1.15572 20 2.58138C20 4.00703 18.8407 5.16275 17.4106 5.16275C15.9805 5.16275 14.8212 4.00703 14.8212 2.58138C14.8212 1.15572 15.9805 0 17.4106 0ZM17.4106 1.44902C16.7833 1.44902 16.2747 1.95599 16.2747 2.58138C16.2747 3.20676 16.7833 3.71373 17.4106 3.71373C18.0379 3.71373 18.5465 3.20676 18.5465 2.58138C18.5465 1.95599 18.0379 1.44902 17.4106 1.44902Z" fill="#555555"/>
</svg>
