<svg width="30" height="30" viewBox="0 0 30 30" fill="none" xmlns="http://www.w3.org/2000/svg">
<path d="M15.03 0C23.55 0 30 6.98548 30 14.9775C30 24.2464 22.44 30 15 30C12.54 30 9.81 29.339 7.62 28.0471C6.855 27.5814 6.21 27.2359 5.385 27.5063L2.355 28.4076C1.59 28.648 0.9 28.0471 1.125 27.2359L2.13 23.8708C2.295 23.4051 2.265 22.9094 2.025 22.5188C0.735 20.1452 0 17.5463 0 15.0225C0 7.12068 6.315 0 15.03 0ZM21.885 13.1147C20.82 13.1147 19.965 13.971 19.965 15.0376C19.965 16.0891 20.82 16.9604 21.885 16.9604C22.95 16.9604 23.805 16.0891 23.805 15.0376C23.805 13.971 22.95 13.1147 21.885 13.1147ZM14.97 13.1147C13.92 13.0996 13.05 13.971 13.05 15.0225C13.05 16.0891 13.905 16.9454 14.97 16.9604C16.035 16.9604 16.89 16.0891 16.89 15.0376C16.89 13.971 16.035 13.1147 14.97 13.1147ZM8.055 13.1147C6.99 13.1147 6.135 13.971 6.135 15.0376C6.135 16.0891 7.005 16.9604 8.055 16.9604C9.12 16.9454 9.975 16.0891 9.975 15.0376C9.975 13.971 9.12 13.1147 8.055 13.1147Z" fill="white"/>
</svg>
