<svg width="30" height="29" viewBox="0 0 30 29" fill="none" xmlns="http://www.w3.org/2000/svg">
<path d="M9.41979 0.000231991C10.3648 0.0289708 11.2797 0.193967 12.1662 0.495459H12.2547C12.3147 0.523959 12.3597 0.555458 12.3897 0.583957C12.7212 0.690455 13.0347 0.810452 13.3347 0.975448L13.9047 1.23044C14.1297 1.35044 14.3997 1.57393 14.5497 1.66543C14.6997 1.75393 14.8647 1.84543 14.9997 1.94892C16.6661 0.675455 18.6896 -0.0145281 20.7745 0.000231991C21.721 0.000231991 22.666 0.133968 23.5644 0.435461C29.1008 2.23542 31.0958 8.31027 29.4293 13.6201C28.4843 16.3336 26.9394 18.81 24.9159 20.8335C22.0195 23.6384 18.8411 26.1283 15.4196 28.2733L15.0447 28.4998L14.6547 28.2583C11.2213 26.1283 8.02483 23.6384 5.1014 20.8185C3.09145 18.795 1.54499 16.3336 0.58501 13.6201C-1.10995 8.31027 0.885004 2.23542 6.48137 0.403962C6.91636 0.253965 7.36484 0.148968 7.81483 0.0904693H7.99483C8.41632 0.0289708 8.83481 0.000231991 9.2548 0.000231991H9.41979ZM22.7845 4.74036C22.1695 4.52886 21.4945 4.86035 21.2695 5.49034C21.0595 6.12032 21.3895 6.8103 22.0195 7.0338C22.981 7.39379 23.6244 8.34027 23.6244 9.38874V9.43524C23.5959 9.77873 23.6994 10.1102 23.9094 10.3652C24.1194 10.6202 24.4344 10.7687 24.7644 10.8002C25.3794 10.7837 25.9044 10.2902 25.9494 9.65874V9.48024C25.9944 7.37879 24.7209 5.47534 22.7845 4.74036Z" fill="white"/>
</svg>
