<svg width="22" height="22" viewBox="0 0 22 22" fill="none" xmlns="http://www.w3.org/2000/svg">
<path d="M1 17.6667V11C1 8.34783 2.05357 5.8043 3.92893 3.92893C5.8043 2.05357 8.34784 1 11 1C13.6522 1 16.1957 2.05357 18.0711 3.92893C19.9464 5.8043 21 8.34783 21 11V17.6667" stroke="#555555" stroke-width="1.7" stroke-linecap="round" stroke-linejoin="round"/>
<path d="M21 18.7778C21 19.3672 20.7659 19.9324 20.3491 20.3491C19.9324 20.7659 19.3671 21 18.7778 21H17.6667C17.0773 21 16.5121 20.7659 16.0953 20.3491C15.6786 19.9324 15.4444 19.3672 15.4444 18.7778V15.4445C15.4444 14.8551 15.6786 14.2899 16.0953 13.8731C16.5121 13.4564 17.0773 13.2222 17.6667 13.2222H21V18.7778ZM1 18.7778C1 19.3672 1.23413 19.9324 1.65087 20.3491C2.06762 20.7659 2.63285 21 3.22222 21H4.33333C4.9227 21 5.48793 20.7659 5.90468 20.3491C6.32143 19.9324 6.55556 19.3672 6.55556 18.7778V15.4445C6.55556 14.8551 6.32143 14.2899 5.90468 13.8731C5.48793 13.4564 4.9227 13.2222 4.33333 13.2222H1V18.7778Z" stroke="#555555" stroke-width="1.7" stroke-linecap="round" stroke-linejoin="round"/>
</svg>
