<svg width="17" height="20" viewBox="0 0 17 20" fill="none" xmlns="http://www.w3.org/2000/svg">
<path fill-rule="evenodd" clip-rule="evenodd" d="M8.49265 0C11.6259 0 14.5718 1.20202 16.7873 3.38458C16.9927 3.58687 17.0439 3.89576 16.9146 4.15199L9.09782 19.6308C8.9836 19.857 8.7492 20 8.49271 20C8.23623 20 8.00183 19.857 7.8876 19.6308L0.070805 4.15199C-0.0585978 3.89576 -0.00739721 3.58694 0.197952 3.38458C2.41352 1.20202 5.3593 0 8.49265 0ZM15.4825 3.99787C13.567 2.27497 11.1032 1.33167 8.49242 1.33167C5.88161 1.33167 3.41783 2.27497 1.50242 3.9978L2.02537 5.03349C3.81075 3.47194 6.08484 2.618 8.49249 2.618C10.9 2.618 13.1741 3.47194 14.9596 5.03342L15.4825 3.99787ZM4.54237 9.91933C4.52358 9.91368 4.50471 9.90937 4.48584 9.90539L3.51754 7.98795C3.64175 7.60593 3.90671 7.29186 4.26709 7.10324C4.63363 6.91105 5.05431 6.87132 5.45154 6.99078C5.84857 7.11024 6.17437 7.37495 6.36932 7.73603C6.56415 8.09718 6.60461 8.51152 6.48301 8.90283C6.36174 9.29394 6.09309 9.61502 5.72662 9.80708C5.35994 9.99906 4.93933 10.0389 4.54237 9.91933ZM5.1962 11.3121L8.49252 17.8395L10.1806 14.4969C10.084 14.5076 9.98595 14.5136 9.88648 14.5136C8.43776 14.5136 7.25919 13.3526 7.25919 11.9254C7.25919 10.4983 8.43783 9.33727 9.88648 9.33727C10.8462 9.33727 11.687 9.8471 12.1455 10.6059L14.3325 6.27525C12.7573 4.77451 10.6894 3.94932 8.49259 3.94932C6.29568 3.94932 4.22776 4.77458 2.65265 6.27532L2.8042 6.57538C3.03457 6.31471 3.31333 6.09471 3.63243 5.92757C4.318 5.56851 5.10426 5.49397 5.84649 5.7174C6.5888 5.94084 7.19829 6.43585 7.56277 7.11114C7.92706 7.78643 8.00259 8.56097 7.7755 9.29222C7.54883 10.0233 7.04653 10.6237 6.3611 10.9828C5.99435 11.1748 5.59856 11.285 5.1962 11.3121ZM9.8862 13.182C9.18279 13.182 8.61063 12.6183 8.61063 11.9254C8.61063 11.2325 9.18279 10.6688 9.8862 10.6688C10.5896 10.6688 11.1618 11.2325 11.1618 11.9254C11.1618 12.6183 10.5896 13.182 9.8862 13.182ZM11.838 7.92245C11.6651 7.92245 11.4921 7.85747 11.3601 7.72744L10.245 6.62899C9.98108 6.36905 9.98108 5.94744 10.245 5.68744C10.5089 5.42757 10.9368 5.42757 11.2007 5.68744L12.3159 6.78596C12.5798 7.04589 12.5798 7.46751 12.3159 7.72744C12.1839 7.8574 12.011 7.92245 11.838 7.92245Z" fill="#555555"/>
</svg>
