<svg width="26" height="22" viewBox="0 0 26 22" fill="none" xmlns="http://www.w3.org/2000/svg">
<path d="M10.1325 13.463L10.3575 13.8565C11.2994 15.4879 12.2536 16.9201 12.9573 17.8066L13.4315 18.3367C13.686 18.6155 13.9881 18.9259 14.1914 19.056C14.9353 19.5317 15.8659 19.5545 16.6024 19.1293L16.6665 19.0923C17.1375 18.7992 17.9028 17.7956 17.8944 17.781C19.1241 16.163 21.0686 12.3002 21.6688 10.0001L21.835 9.31763C21.8762 9.13488 21.9184 8.92241 21.9317 8.76811C21.9921 8.28062 21.8777 7.78655 21.6352 7.36649C21.3645 6.89758 20.9689 6.54473 20.4909 6.34526L19.7902 6.12859L19.636 6.08501C17.5026 5.41996 12.7335 5.07177 10.5302 5.3946L10.1998 5.44713C9.80677 5.51841 9.27018 5.6426 8.98614 5.78949C8.63422 5.99267 8.34526 6.26859 8.11785 6.61481C7.84799 7.07182 7.73458 7.61271 7.80055 8.13471C7.85587 8.49027 8.18339 9.4653 8.19256 9.48117C8.53895 10.455 9.2471 11.8983 10.1325 13.463Z" fill="white"/>
<path d="M13.486 7.12586C15.6826 6.26776 18.1422 7.30908 18.9791 9.45153C19.816 11.594 17.1963 12.6419 14.9998 13.5L11.9022 14.8083C7.84578 18.0548 5.08252 23.1686 4.42484 21.4851C3.76826 19.8044 9.67484 9.63055 12.4436 7.83915L13.486 7.12586Z" fill="white"/>
</svg>
