<svg width="20" height="20" viewBox="0 0 20 20" fill="none" xmlns="http://www.w3.org/2000/svg">
<path d="M15.9733 3.06152L3.03976 15.9731L3.98175 16.9167L16.9153 4.00511L15.9733 3.06152Z" fill="#555555"/>
<path d="M3.98176 3.06184L3.03976 4.00543L15.9733 16.917L16.9153 15.9734L3.98176 3.06184Z" fill="#555555"/>
<path d="M12.0616 12.2174C10.2248 14.0541 9.34519 16.5872 9.64874 19.1667L10.9727 19.0109C10.7172 16.8394 11.4578 14.7067 13.0043 13.16C14.6076 11.5567 16.8939 10.8127 19.116 11.1691L19.3274 9.8527C16.6832 9.42828 13.9665 10.3125 12.0616 12.2174Z" fill="#555555"/>
<path d="M9.6641 0.818573L8.33434 0.914589C8.48187 2.9606 7.72633 4.97435 6.25789 6.44283C4.81391 7.90615 2.8568 8.64084 0.75121 8.51217L0.669647 9.84307C0.856757 9.85463 1.0423 9.86017 1.22719 9.86017C3.51098 9.86017 5.61719 8.99084 7.20387 7.3824C8.94301 5.64322 9.83969 3.2508 9.6641 0.818573Z" fill="#555555"/>
<path d="M10 0C4.48602 0 0 4.48602 0 10C0 15.514 4.48602 20 10 20C15.514 20 20 15.514 20 10C20 4.48602 15.514 0 10 0ZM10 18.6667C5.22109 18.6667 1.33332 14.7789 1.33332 10C1.33332 5.22109 5.22109 1.33332 10 1.33332C14.7789 1.33332 18.6667 5.22109 18.6667 10C18.6667 14.7789 14.7789 18.6667 10 18.6667Z" fill="#555555"/>
</svg>
